# xmcd CD database file
#
# Track frame offsets:
#	150
#	13549
#	26006
#	38307
#	54956
#	69570
#	89108
#	101875
#	114493
#	130482
#	146151
#	160097
#
# Disc length: 2317 seconds
#
# Revision: 0
# Processed by: cddbd v1.5.2PL0 Copyright (c) Steve Scherf et al.
# Submitted via: CDex 1.72
#
DISCID=a1090b0c
DTITLE=Pineo, Steve [CDN-00-Aperfectly Good Friendship-jazz) X - A Perfectly Good Friendship
DYEAR=2000
DGENRE=Jazz
TTITLE0=A Perfectly Good Friendship
TTITLE1=Canadian Man
TTITLE2=Dance With Me
TTITLE3=It Gets To Me
TTITLE4=She Ain't No Good
TTITLE5=In Rehearsal For The Blues
TTITLE6=Coyote Song
TTITLE7=Get Back On That Horse
TTITLE8=How Did You Happen (To Happen To Me)
TTITLE9=Mississippi Dream
TTITLE10=Out In The Cold Again
TTITLE11=Depending On You
EXTD=YEAR: 2000
EXTT0=
EXTT1=
EXTT2=
EXTT3=
EXTT4=
EXTT5=
EXTT6=
EXTT7=
EXTT8=
EXTT9=
EXTT10=
EXTT11=
PLAYORDER=
